<svg xmlns="http://www.w3.org/2000/svg" xmlns:xlink="http://www.w3.org/1999/xlink" width="500" zoomAndPan="magnify" viewBox="0 0 375 374.999991" height="500" preserveAspectRatio="xMidYMid meet" version="1.0"><defs><g/><clipPath id="802bc8d26e"><path d="M 149.292969 155.753906 L 227.292969 155.753906 L 227.292969 224.003906 L 149.292969 224.003906 Z M 149.292969 155.753906 " clip-rule="nonzero"/></clipPath></defs><g fill="#403029" fill-opacity="1"><g transform="translate(94.186351, 201.490193)"><g><path d="M -11.4375 -7.4375 C -11.445312 -7.519531 -11.425781 -7.601562 -11.375 -7.6875 C -11.320312 -7.757812 -11.253906 -7.800781 -11.171875 -7.8125 L -1.65625 -9.1875 C -1.5625 -9.195312 -1.484375 -9.175781 -1.421875 -9.125 C -1.335938 -9.0625 -1.289062 -8.988281 -1.28125 -8.90625 L -1.078125 -7.53125 C -1.066406 -7.4375 -1.09375 -7.351562 -1.15625 -7.28125 C -1.195312 -7.207031 -1.265625 -7.164062 -1.359375 -7.15625 L -7.6875 -6.25 L -5.59375 -5.296875 C -5.5 -5.265625 -5.414062 -5.207031 -5.34375 -5.125 C -5.28125 -5.03125 -5.242188 -4.9375 -5.234375 -4.84375 L -5.140625 -4.203125 C -5.117188 -4.117188 -5.128906 -4.019531 -5.171875 -3.90625 C -5.222656 -3.8125 -5.285156 -3.734375 -5.359375 -3.671875 L -7.125 -2.171875 L -0.78125 -3.078125 C -0.6875 -3.085938 -0.609375 -3.066406 -0.546875 -3.015625 C -0.460938 -2.960938 -0.414062 -2.890625 -0.40625 -2.796875 L -0.203125 -1.421875 C -0.191406 -1.328125 -0.21875 -1.25 -0.28125 -1.1875 C -0.320312 -1.101562 -0.390625 -1.054688 -0.484375 -1.046875 L -10 0.328125 C -10.082031 0.335938 -10.160156 0.3125 -10.234375 0.25 C -10.304688 0.207031 -10.347656 0.140625 -10.359375 0.046875 L -10.5625 -1.328125 L -10.5625 -1.453125 C -10.550781 -1.503906 -10.53125 -1.550781 -10.5 -1.59375 C -10.46875 -1.707031 -10.414062 -1.796875 -10.34375 -1.859375 L -7.359375 -4.21875 L -10.890625 -5.640625 C -10.984375 -5.679688 -11.054688 -5.738281 -11.109375 -5.8125 L -11.1875 -5.9375 C -11.21875 -5.96875 -11.234375 -6.007812 -11.234375 -6.0625 Z M -11.4375 -7.4375 "/></g></g></g><g fill="#403029" fill-opacity="1"><g transform="translate(92.442341, 187.349601)"><g><path d="M -8.453125 -9.1875 C -8.359375 -9.1875 -8.28125 -9.15625 -8.21875 -9.09375 C -8.164062 -9.03125 -8.140625 -8.953125 -8.140625 -8.859375 L -8.171875 -6.296875 L -2 -6.25 L -1.96875 -8.8125 C -1.96875 -8.90625 -1.9375 -8.984375 -1.875 -9.046875 C -1.8125 -9.109375 -1.734375 -9.140625 -1.640625 -9.140625 L -0.25 -9.125 C -0.15625 -9.125 -0.078125 -9.09375 -0.015625 -9.03125 C 0.046875 -8.96875 0.078125 -8.890625 0.078125 -8.796875 L 0.015625 -1.640625 C 0.015625 -1.554688 -0.015625 -1.476562 -0.078125 -1.40625 C -0.140625 -1.34375 -0.21875 -1.3125 -0.3125 -1.3125 L -1.703125 -1.328125 C -1.796875 -1.328125 -1.875 -1.359375 -1.9375 -1.421875 C -2 -1.492188 -2.03125 -1.570312 -2.03125 -1.65625 L -2.015625 -4.203125 L -8.1875 -4.25 L -8.203125 -1.703125 C -8.203125 -1.617188 -8.226562 -1.539062 -8.28125 -1.46875 C -8.34375 -1.40625 -8.421875 -1.375 -8.515625 -1.375 L -9.921875 -1.390625 C -10.015625 -1.390625 -10.09375 -1.421875 -10.15625 -1.484375 C -10.21875 -1.554688 -10.25 -1.632812 -10.25 -1.71875 L -10.1875 -8.875 C -10.1875 -8.96875 -10.15625 -9.046875 -10.09375 -9.109375 C -10.03125 -9.171875 -9.953125 -9.203125 -9.859375 -9.203125 Z M -8.453125 -9.1875 "/></g></g></g><g fill="#403029" fill-opacity="1"><g transform="translate(92.844049, 173.104627)"><g><path d="M -6.375 -8.375 C -6.539062 -8.40625 -6.6875 -8.367188 -6.8125 -8.265625 C -6.945312 -8.171875 -7.023438 -8.046875 -7.046875 -7.890625 L -7.515625 -4.984375 C -7.535156 -4.828125 -7.5 -4.679688 -7.40625 -4.546875 C -7.320312 -4.421875 -7.195312 -4.34375 -7.03125 -4.3125 L -2.125 -3.53125 C -1.945312 -3.5 -1.789062 -3.53125 -1.65625 -3.625 C -1.519531 -3.726562 -1.441406 -3.859375 -1.421875 -4.015625 L -0.953125 -6.921875 C -0.929688 -7.078125 -0.96875 -7.21875 -1.0625 -7.34375 C -1.15625 -7.476562 -1.289062 -7.5625 -1.46875 -7.59375 L -2.890625 -7.828125 L -3.171875 -6.125 C -3.179688 -6.039062 -3.222656 -5.96875 -3.296875 -5.90625 C -3.378906 -5.851562 -3.460938 -5.832031 -3.546875 -5.84375 L -4.9375 -6.0625 C -5.019531 -6.082031 -5.085938 -6.128906 -5.140625 -6.203125 C -5.191406 -6.273438 -5.210938 -6.351562 -5.203125 -6.4375 L -4.65625 -9.859375 C -4.632812 -9.941406 -4.585938 -10.007812 -4.515625 -10.0625 C -4.453125 -10.113281 -4.378906 -10.128906 -4.296875 -10.109375 L -1.15625 -9.609375 C -0.78125 -9.546875 -0.445312 -9.421875 -0.15625 -9.234375 C 0.132812 -9.054688 0.378906 -8.828125 0.578125 -8.546875 C 0.773438 -8.265625 0.914062 -7.957031 1 -7.625 C 1.09375 -7.289062 1.113281 -6.945312 1.0625 -6.59375 L 0.59375 -3.6875 C 0.539062 -3.332031 0.414062 -3.007812 0.21875 -2.71875 C 0.03125 -2.425781 -0.195312 -2.179688 -0.46875 -1.984375 C -0.738281 -1.796875 -1.039062 -1.65625 -1.375 -1.5625 C -1.71875 -1.46875 -2.078125 -1.453125 -2.453125 -1.515625 L -7.359375 -2.296875 C -7.710938 -2.359375 -8.035156 -2.484375 -8.328125 -2.671875 C -8.617188 -2.867188 -8.863281 -3.101562 -9.0625 -3.375 C -9.257812 -3.644531 -9.398438 -3.945312 -9.484375 -4.28125 C -9.578125 -4.613281 -9.597656 -4.957031 -9.546875 -5.3125 L -9.078125 -8.21875 C -9.023438 -8.570312 -8.898438 -8.894531 -8.703125 -9.1875 C -8.515625 -9.476562 -8.285156 -9.722656 -8.015625 -9.921875 C -7.742188 -10.128906 -7.4375 -10.273438 -7.09375 -10.359375 C -6.757812 -10.441406 -6.414062 -10.453125 -6.0625 -10.390625 L -5.953125 -10.375 C -5.859375 -10.363281 -5.78125 -10.320312 -5.71875 -10.25 C -5.664062 -10.1875 -5.648438 -10.113281 -5.671875 -10.03125 L -5.890625 -8.640625 C -5.898438 -8.546875 -5.941406 -8.472656 -6.015625 -8.421875 C -6.085938 -8.367188 -6.171875 -8.347656 -6.265625 -8.359375 Z M -6.375 -8.375 "/></g></g></g><g fill="#403029" fill-opacity="1"><g transform="translate(95.387175, 159.102655)"><g><path d="M 1.140625 -3.5625 C 1.035156 -3.21875 0.863281 -2.914062 0.625 -2.65625 C 0.394531 -2.394531 0.128906 -2.1875 -0.171875 -2.03125 C -0.472656 -1.875 -0.796875 -1.78125 -1.140625 -1.75 C -1.484375 -1.71875 -1.832031 -1.757812 -2.1875 -1.875 L -9.125 -4.09375 C -9.207031 -4.125 -9.269531 -4.175781 -9.3125 -4.25 C -9.363281 -4.332031 -9.375 -4.421875 -9.34375 -4.515625 L -8.921875 -5.828125 C -8.890625 -5.921875 -8.832031 -5.984375 -8.75 -6.015625 C -8.664062 -6.054688 -8.582031 -6.0625 -8.5 -6.03125 L -1.5625 -3.8125 C -1.394531 -3.757812 -1.238281 -3.769531 -1.09375 -3.84375 C -0.957031 -3.914062 -0.863281 -4.03125 -0.8125 -4.1875 L 0.078125 -6.984375 C 0.140625 -7.148438 0.128906 -7.300781 0.046875 -7.4375 C -0.0234375 -7.582031 -0.144531 -7.679688 -0.3125 -7.734375 L -7.25 -9.953125 C -7.332031 -9.984375 -7.394531 -10.035156 -7.4375 -10.109375 C -7.476562 -10.191406 -7.488281 -10.28125 -7.46875 -10.375 L -7.03125 -11.703125 C -7.007812 -11.785156 -6.957031 -11.847656 -6.875 -11.890625 C -6.789062 -11.929688 -6.707031 -11.9375 -6.625 -11.90625 L 0.3125 -9.6875 C 0.664062 -9.570312 0.972656 -9.398438 1.234375 -9.171875 C 1.492188 -8.941406 1.703125 -8.675781 1.859375 -8.375 C 2.015625 -8.070312 2.109375 -7.742188 2.140625 -7.390625 C 2.179688 -7.046875 2.144531 -6.703125 2.03125 -6.359375 Z M 1.140625 -3.5625 "/></g></g></g><g fill="#403029" fill-opacity="1"><g transform="translate(100.008792, 145.62341)"><g><path d="M -3.5625 -12 C -3.476562 -11.957031 -3.421875 -11.894531 -3.390625 -11.8125 C -3.367188 -11.738281 -3.378906 -11.660156 -3.421875 -11.578125 L -5.890625 -6.625 L -4.046875 -5.703125 L -1.8125 -10.1875 C -1.769531 -10.257812 -1.703125 -10.3125 -1.609375 -10.34375 C -1.523438 -10.382812 -1.445312 -10.382812 -1.375 -10.34375 L -0.109375 -9.71875 C -0.0234375 -9.675781 0.0234375 -9.609375 0.046875 -9.515625 C 0.078125 -9.429688 0.0703125 -9.351562 0.03125 -9.28125 L -2.203125 -4.796875 L -0.359375 -3.875 L 2.109375 -8.828125 C 2.148438 -8.910156 2.207031 -8.960938 2.28125 -8.984375 C 2.363281 -9.015625 2.445312 -9.007812 2.53125 -8.96875 L 3.78125 -8.34375 C 3.863281 -8.300781 3.921875 -8.238281 3.953125 -8.15625 C 3.984375 -8.082031 3.976562 -8.003906 3.9375 -7.921875 L 0.703125 -1.40625 C 0.660156 -1.320312 0.597656 -1.265625 0.515625 -1.234375 C 0.429688 -1.210938 0.347656 -1.222656 0.265625 -1.265625 L -8.34375 -5.546875 C -8.425781 -5.585938 -8.476562 -5.644531 -8.5 -5.71875 C -8.53125 -5.800781 -8.523438 -5.882812 -8.484375 -5.96875 L -5.25 -12.484375 C -5.207031 -12.566406 -5.144531 -12.617188 -5.0625 -12.640625 C -4.988281 -12.671875 -4.910156 -12.664062 -4.828125 -12.625 Z M -3.5625 -12 "/></g></g></g><g fill="#403029" fill-opacity="1"><g transform="translate(106.602073, 133.010752)"><g><path d="M 5.09375 -7.265625 L 1.078125 -1.53125 C 1.023438 -1.457031 0.953125 -1.410156 0.859375 -1.390625 C 0.773438 -1.378906 0.695312 -1.398438 0.625 -1.453125 L -7.234375 -6.984375 C -7.316406 -7.035156 -7.363281 -7.101562 -7.375 -7.1875 C -7.394531 -7.28125 -7.378906 -7.363281 -7.328125 -7.4375 L -6.53125 -8.578125 C -6.476562 -8.648438 -6.40625 -8.691406 -6.3125 -8.703125 C -6.226562 -8.722656 -6.144531 -8.707031 -6.0625 -8.65625 L 0.390625 -4.109375 L 3.421875 -8.4375 C 3.484375 -8.507812 3.554688 -8.550781 3.640625 -8.5625 C 3.722656 -8.570312 3.800781 -8.550781 3.875 -8.5 L 5.015625 -7.703125 C 5.085938 -7.648438 5.132812 -7.582031 5.15625 -7.5 C 5.175781 -7.414062 5.15625 -7.335938 5.09375 -7.265625 Z M 5.09375 -7.265625 "/></g></g></g><g fill="#403029" fill-opacity="1"><g transform="translate(115.024728, 121.517981)"><g/></g></g><g fill="#403029" fill-opacity="1"><g transform="translate(125.07147, 111.436629)"><g><path d="M -1.03125 -12.15625 C -0.957031 -12.21875 -0.867188 -12.25 -0.765625 -12.25 C -0.660156 -12.257812 -0.570312 -12.238281 -0.5 -12.1875 L 4.484375 -9.265625 C 4.554688 -9.210938 4.640625 -9.144531 4.734375 -9.0625 C 4.835938 -8.976562 4.910156 -8.90625 4.953125 -8.84375 L 7.1875 -5.953125 C 7.25 -5.878906 7.269531 -5.796875 7.25 -5.703125 C 7.238281 -5.609375 7.195312 -5.539062 7.125 -5.5 L 6.015625 -4.640625 C 5.941406 -4.578125 5.859375 -4.550781 5.765625 -4.5625 C 5.679688 -4.582031 5.609375 -4.628906 5.546875 -4.703125 L 4.5 -6.0625 L 1.25 -3.546875 L 2.296875 -2.1875 C 2.359375 -2.113281 2.382812 -2.03125 2.375 -1.9375 C 2.363281 -1.851562 2.316406 -1.78125 2.234375 -1.71875 L 1.140625 -0.875 C 1.066406 -0.820312 0.984375 -0.800781 0.890625 -0.8125 C 0.804688 -0.820312 0.734375 -0.863281 0.671875 -0.9375 L -1.5625 -3.828125 C -1.601562 -3.890625 -1.648438 -3.976562 -1.703125 -4.09375 C -1.765625 -4.207031 -1.804688 -4.3125 -1.828125 -4.40625 L -3.40625 -9.953125 C -3.4375 -10.046875 -3.429688 -10.140625 -3.390625 -10.234375 C -3.359375 -10.328125 -3.3125 -10.398438 -3.25 -10.453125 Z M 0.0625 -5.21875 L 3.1875 -7.640625 L -0.640625 -9.890625 L -1.15625 -9.484375 Z M -2.328125 -14.953125 C -2.265625 -15.003906 -2.203125 -15.019531 -2.140625 -15 C -2.085938 -14.976562 -2.054688 -14.914062 -2.046875 -14.8125 L -1.828125 -13.09375 C -1.816406 -13.007812 -1.832031 -12.914062 -1.875 -12.8125 C -1.914062 -12.71875 -1.972656 -12.644531 -2.046875 -12.59375 L -3.15625 -11.734375 C -3.21875 -11.679688 -3.28125 -11.664062 -3.34375 -11.6875 C -3.40625 -11.707031 -3.441406 -11.757812 -3.453125 -11.84375 L -3.65625 -13.5625 C -3.675781 -13.664062 -3.660156 -13.765625 -3.609375 -13.859375 C -3.566406 -13.960938 -3.507812 -14.039062 -3.4375 -14.09375 Z M -2.328125 -14.953125 "/></g></g></g><g fill="#403029" fill-opacity="1"><g transform="translate(136.531875, 102.971592)"><g><path d="M 1.546875 -12.21875 C 1.503906 -12.289062 1.492188 -12.367188 1.515625 -12.453125 C 1.535156 -12.546875 1.585938 -12.613281 1.671875 -12.65625 L 2.90625 -13.34375 C 2.976562 -13.382812 3.054688 -13.390625 3.140625 -13.359375 C 3.234375 -13.335938 3.300781 -13.289062 3.34375 -13.21875 L 8 -4.796875 C 8.039062 -4.722656 8.046875 -4.640625 8.015625 -4.546875 C 7.992188 -4.460938 7.945312 -4.398438 7.875 -4.359375 L 6.640625 -3.671875 C 6.554688 -3.628906 6.472656 -3.617188 6.390625 -3.640625 C 6.304688 -3.671875 6.242188 -3.722656 6.203125 -3.796875 L 4.5 -6.859375 L -0.875 -8.109375 L 2.609375 -1.8125 C 2.648438 -1.738281 2.65625 -1.65625 2.625 -1.5625 C 2.601562 -1.476562 2.550781 -1.414062 2.46875 -1.375 L 1.265625 -0.703125 C 1.179688 -0.648438 1.09375 -0.632812 1 -0.65625 C 0.914062 -0.6875 0.851562 -0.738281 0.8125 -0.8125 L -3.84375 -9.234375 C -3.882812 -9.304688 -3.890625 -9.382812 -3.859375 -9.46875 C -3.835938 -9.5625 -3.785156 -9.632812 -3.703125 -9.6875 L -2.5 -10.359375 C -2.414062 -10.398438 -2.3125 -10.425781 -2.1875 -10.4375 C -2.070312 -10.457031 -1.972656 -10.457031 -1.890625 -10.4375 L 3.171875 -9.28125 Z M 1.546875 -12.21875 "/></g></g></g><g fill="#403029" fill-opacity="1"><g transform="translate(149.136461, 96.328483)"><g><path d="M 4.171875 -9.671875 C 4.109375 -9.828125 4.003906 -9.9375 3.859375 -10 C 3.710938 -10.070312 3.5625 -10.078125 3.40625 -10.015625 L 0.65625 -9 C 0.507812 -8.945312 0.398438 -8.847656 0.328125 -8.703125 C 0.253906 -8.554688 0.25 -8.40625 0.3125 -8.25 L 2.03125 -3.578125 C 2.09375 -3.410156 2.195312 -3.296875 2.34375 -3.234375 C 2.5 -3.171875 2.648438 -3.164062 2.796875 -3.21875 L 5.546875 -4.234375 C 5.703125 -4.296875 5.8125 -4.394531 5.875 -4.53125 C 5.945312 -4.675781 5.953125 -4.832031 5.890625 -5 L 5.390625 -6.359375 L 3.765625 -5.765625 C 3.691406 -5.734375 3.609375 -5.738281 3.515625 -5.78125 C 3.429688 -5.820312 3.367188 -5.882812 3.328125 -5.96875 L 2.84375 -7.296875 C 2.8125 -7.367188 2.816406 -7.445312 2.859375 -7.53125 C 2.910156 -7.613281 2.972656 -7.671875 3.046875 -7.703125 L 6.296875 -8.90625 C 6.378906 -8.9375 6.457031 -8.929688 6.53125 -8.890625 C 6.613281 -8.847656 6.671875 -8.789062 6.703125 -8.71875 L 7.8125 -5.71875 C 7.945312 -5.375 8.003906 -5.023438 7.984375 -4.671875 C 7.960938 -4.316406 7.878906 -3.984375 7.734375 -3.671875 C 7.597656 -3.367188 7.398438 -3.097656 7.140625 -2.859375 C 6.890625 -2.617188 6.59375 -2.4375 6.25 -2.3125 L 3.5 -1.296875 C 3.164062 -1.171875 2.828125 -1.117188 2.484375 -1.140625 C 2.140625 -1.160156 1.8125 -1.238281 1.5 -1.375 C 1.195312 -1.519531 0.925781 -1.71875 0.6875 -1.96875 C 0.445312 -2.226562 0.257812 -2.53125 0.125 -2.875 L -1.59375 -7.546875 C -1.71875 -7.890625 -1.769531 -8.234375 -1.75 -8.578125 C -1.738281 -8.921875 -1.660156 -9.242188 -1.515625 -9.546875 C -1.378906 -9.859375 -1.1875 -10.132812 -0.9375 -10.375 C -0.6875 -10.613281 -0.394531 -10.796875 -0.0625 -10.921875 L 2.6875 -11.9375 C 3.03125 -12.0625 3.375 -12.113281 3.71875 -12.09375 C 4.070312 -12.070312 4.398438 -11.988281 4.703125 -11.84375 C 5.015625 -11.707031 5.289062 -11.515625 5.53125 -11.265625 C 5.78125 -11.023438 5.96875 -10.734375 6.09375 -10.390625 L 6.125 -10.28125 C 6.15625 -10.195312 6.148438 -10.113281 6.109375 -10.03125 C 6.078125 -9.945312 6.019531 -9.890625 5.9375 -9.859375 L 4.625 -9.375 C 4.53125 -9.332031 4.441406 -9.332031 4.359375 -9.375 C 4.285156 -9.414062 4.234375 -9.476562 4.203125 -9.5625 Z M 4.171875 -9.671875 "/></g></g></g><g fill="#403029" fill-opacity="1"><g transform="translate(162.58331, 91.662543)"><g><path d="M 7.25 -10.203125 C 7.269531 -10.109375 7.253906 -10.023438 7.203125 -9.953125 C 7.160156 -9.890625 7.09375 -9.847656 7 -9.828125 L 1.59375 -8.71875 L 2 -6.703125 L 6.90625 -7.71875 C 6.988281 -7.726562 7.070312 -7.707031 7.15625 -7.65625 C 7.238281 -7.613281 7.285156 -7.550781 7.296875 -7.46875 L 7.59375 -6.09375 C 7.601562 -6 7.582031 -5.910156 7.53125 -5.828125 C 7.476562 -5.753906 7.410156 -5.710938 7.328125 -5.703125 L 2.421875 -4.6875 L 2.84375 -2.671875 L 8.25 -3.78125 C 8.34375 -3.800781 8.421875 -3.785156 8.484375 -3.734375 C 8.554688 -3.691406 8.601562 -3.625 8.625 -3.53125 L 8.90625 -2.171875 C 8.925781 -2.078125 8.910156 -1.992188 8.859375 -1.921875 C 8.816406 -1.847656 8.75 -1.800781 8.65625 -1.78125 L 1.546875 -0.3125 C 1.453125 -0.300781 1.367188 -0.316406 1.296875 -0.359375 C 1.222656 -0.410156 1.175781 -0.484375 1.15625 -0.578125 L -0.78125 -9.984375 C -0.800781 -10.078125 -0.785156 -10.160156 -0.734375 -10.234375 C -0.691406 -10.304688 -0.625 -10.347656 -0.53125 -10.359375 L 6.578125 -11.828125 C 6.671875 -11.847656 6.753906 -11.832031 6.828125 -11.78125 C 6.898438 -11.738281 6.945312 -11.671875 6.96875 -11.578125 Z M 7.25 -10.203125 "/></g></g></g><g fill="#403029" fill-opacity="1"><g transform="translate(176.578303, 89.07028)"><g><path d="M 8.859375 -0.46875 L 1.875 -0.09375 C 1.78125 -0.09375 1.695312 -0.117188 1.625 -0.171875 C 1.5625 -0.234375 1.53125 -0.3125 1.53125 -0.40625 L 1.03125 -10 C 1.019531 -10.09375 1.046875 -10.171875 1.109375 -10.234375 C 1.171875 -10.304688 1.25 -10.34375 1.34375 -10.34375 L 2.734375 -10.421875 C 2.816406 -10.421875 2.890625 -10.390625 2.953125 -10.328125 C 3.023438 -10.273438 3.066406 -10.203125 3.078125 -10.109375 L 3.484375 -2.234375 L 8.75 -2.515625 C 8.84375 -2.515625 8.921875 -2.484375 8.984375 -2.421875 C 9.046875 -2.367188 9.078125 -2.296875 9.078125 -2.203125 L 9.15625 -0.8125 C 9.15625 -0.71875 9.128906 -0.632812 9.078125 -0.5625 C 9.023438 -0.5 8.953125 -0.46875 8.859375 -0.46875 Z M 8.859375 -0.46875 "/></g></g></g><g fill="#403029" fill-opacity="1"><g transform="translate(190.819261, 88.616103)"><g/></g></g><g fill="#403029" fill-opacity="1"><g transform="translate(204.951547, 90.303445)"><g><path d="M 8.9375 -8.3125 C 9.03125 -8.289062 9.109375 -8.238281 9.171875 -8.15625 C 9.242188 -8.082031 9.285156 -8.003906 9.296875 -7.921875 L 10.0625 -2.1875 C 10.070312 -2.101562 10.070312 -1.992188 10.0625 -1.859375 C 10.050781 -1.734375 10.035156 -1.628906 10.015625 -1.546875 L 9.109375 2 C 9.085938 2.082031 9.035156 2.144531 8.953125 2.1875 C 8.878906 2.226562 8.800781 2.238281 8.71875 2.21875 L 7.359375 1.875 C 7.265625 1.851562 7.195312 1.800781 7.15625 1.71875 C 7.113281 1.644531 7.101562 1.566406 7.125 1.484375 L 7.546875 -0.1875 L 3.5625 -1.203125 L 3.140625 0.46875 C 3.117188 0.550781 3.066406 0.613281 2.984375 0.65625 C 2.910156 0.707031 2.828125 0.722656 2.734375 0.703125 L 1.390625 0.359375 C 1.296875 0.335938 1.226562 0.285156 1.1875 0.203125 C 1.144531 0.128906 1.132812 0.0507812 1.15625 -0.03125 L 2.0625 -3.578125 C 2.082031 -3.660156 2.117188 -3.757812 2.171875 -3.875 C 2.234375 -3.988281 2.289062 -4.082031 2.34375 -4.15625 L 5.734375 -8.828125 C 5.785156 -8.898438 5.859375 -8.953125 5.953125 -8.984375 C 6.054688 -9.023438 6.144531 -9.035156 6.21875 -9.015625 Z M 4.15625 -3.171875 L 7.984375 -2.1875 L 7.390625 -6.59375 L 6.75 -6.765625 Z M 4.15625 -3.171875 "/></g></g></g><g fill="#403029" fill-opacity="1"><g transform="translate(218.683011, 94.104114)"><g><path d="M 12.28125 -5.9375 C 12.363281 -5.90625 12.425781 -5.84375 12.46875 -5.75 C 12.507812 -5.675781 12.507812 -5.597656 12.46875 -5.515625 L 8.71875 3.34375 C 8.6875 3.425781 8.628906 3.484375 8.546875 3.515625 C 8.453125 3.546875 8.363281 3.546875 8.28125 3.515625 L 7 2.96875 C 6.914062 2.9375 6.863281 2.875 6.84375 2.78125 C 6.800781 2.707031 6.796875 2.628906 6.828125 2.546875 L 9.328125 -3.34375 L 7.421875 -2.046875 C 7.347656 -1.984375 7.257812 -1.941406 7.15625 -1.921875 C 7.039062 -1.910156 6.941406 -1.921875 6.859375 -1.953125 L 6.25 -2.21875 C 6.175781 -2.25 6.101562 -2.3125 6.03125 -2.40625 C 5.957031 -2.488281 5.921875 -2.582031 5.921875 -2.6875 L 5.53125 -4.96875 L 3.03125 0.9375 C 3 1.019531 2.941406 1.070312 2.859375 1.09375 C 2.773438 1.132812 2.691406 1.140625 2.609375 1.109375 L 1.328125 0.5625 C 1.234375 0.519531 1.179688 0.457031 1.171875 0.375 C 1.117188 0.300781 1.109375 0.222656 1.140625 0.140625 L 4.890625 -8.71875 C 4.929688 -8.800781 5 -8.859375 5.09375 -8.890625 C 5.15625 -8.929688 5.234375 -8.929688 5.328125 -8.890625 L 6.609375 -8.34375 L 6.703125 -8.296875 C 6.753906 -8.265625 6.785156 -8.21875 6.796875 -8.15625 C 6.878906 -8.082031 6.925781 -7.992188 6.9375 -7.890625 L 7.421875 -4.109375 L 10.46875 -6.40625 C 10.539062 -6.46875 10.628906 -6.5 10.734375 -6.5 L 10.875 -6.5 C 10.914062 -6.507812 10.957031 -6.503906 11 -6.484375 Z M 12.28125 -5.9375 "/></g></g></g><g fill="#403029" fill-opacity="1"><g transform="translate(231.685841, 99.928558)"><g><path d="M 11.015625 -5.265625 C 11.097656 -5.210938 11.15625 -5.140625 11.1875 -5.046875 C 11.226562 -4.960938 11.242188 -4.875 11.234375 -4.78125 L 10.265625 0.90625 C 10.242188 0.988281 10.207031 1.085938 10.15625 1.203125 C 10.113281 1.328125 10.070312 1.425781 10.03125 1.5 L 8.109375 4.609375 C 8.054688 4.691406 7.984375 4.738281 7.890625 4.75 C 7.804688 4.769531 7.726562 4.757812 7.65625 4.71875 L 6.46875 3.984375 C 6.382812 3.929688 6.332031 3.863281 6.3125 3.78125 C 6.289062 3.695312 6.304688 3.613281 6.359375 3.53125 L 7.265625 2.0625 L 3.765625 -0.09375 L 2.859375 1.375 C 2.804688 1.457031 2.738281 1.507812 2.65625 1.53125 C 2.570312 1.550781 2.488281 1.535156 2.40625 1.484375 L 1.21875 0.75 C 1.144531 0.707031 1.09375 0.640625 1.0625 0.546875 C 1.039062 0.460938 1.054688 0.378906 1.109375 0.296875 L 3.03125 -2.8125 C 3.070312 -2.882812 3.140625 -2.960938 3.234375 -3.046875 C 3.328125 -3.140625 3.40625 -3.21875 3.46875 -3.28125 L 8.109375 -6.71875 C 8.171875 -6.769531 8.253906 -6.796875 8.359375 -6.796875 C 8.472656 -6.796875 8.566406 -6.773438 8.640625 -6.734375 Z M 4.890625 -1.78125 L 8.265625 0.28125 L 9.015625 -4.09375 L 8.46875 -4.4375 Z M 4.890625 -1.78125 "/></g></g></g><g fill="#403029" fill-opacity="1"><g transform="translate(243.663705, 107.644045)"><g><path d="M 1.09375 0.921875 C 1.019531 0.867188 0.976562 0.796875 0.96875 0.703125 C 0.96875 0.617188 1 0.539062 1.0625 0.46875 L 7.265625 -6.859375 C 7.328125 -6.929688 7.398438 -6.96875 7.484375 -6.96875 C 7.578125 -6.976562 7.660156 -6.957031 7.734375 -6.90625 L 11.734375 -3.515625 C 12.003906 -3.273438 12.21875 -3 12.375 -2.6875 C 12.53125 -2.375 12.625 -2.046875 12.65625 -1.703125 C 12.6875 -1.359375 12.648438 -1.019531 12.546875 -0.6875 C 12.441406 -0.363281 12.273438 -0.0625 12.046875 0.21875 L 8.828125 4 C 8.585938 4.289062 8.3125 4.507812 8 4.65625 C 7.6875 4.8125 7.359375 4.898438 7.015625 4.921875 C 6.679688 4.953125 6.34375 4.914062 6 4.8125 C 5.664062 4.71875 5.363281 4.550781 5.09375 4.3125 Z M 3.734375 0.484375 L 6.421875 2.75 C 6.554688 2.863281 6.703125 2.910156 6.859375 2.890625 C 7.015625 2.878906 7.148438 2.804688 7.265625 2.671875 L 10.484375 -1.109375 C 10.585938 -1.234375 10.632812 -1.375 10.625 -1.53125 C 10.613281 -1.695312 10.539062 -1.835938 10.40625 -1.953125 L 7.71875 -4.21875 Z M 3.734375 0.484375 "/></g></g></g><g fill="#403029" fill-opacity="1"><g transform="translate(254.3436, 117.074705)"><g><path d="M 12.109375 -1.703125 C 12.359375 -1.421875 12.53125 -1.113281 12.625 -0.78125 C 12.726562 -0.445312 12.769531 -0.113281 12.75 0.21875 C 12.726562 0.5625 12.644531 0.890625 12.5 1.203125 C 12.351562 1.515625 12.144531 1.785156 11.875 2.015625 L 8.109375 5.296875 C 7.835938 5.535156 7.535156 5.707031 7.203125 5.8125 C 6.867188 5.914062 6.53125 5.953125 6.1875 5.921875 C 5.851562 5.898438 5.53125 5.816406 5.21875 5.671875 C 4.90625 5.523438 4.625 5.3125 4.375 5.03125 L 2.46875 2.828125 C 2.226562 2.554688 2.054688 2.253906 1.953125 1.921875 C 1.847656 1.585938 1.804688 1.25 1.828125 0.90625 C 1.847656 0.570312 1.929688 0.25 2.078125 -0.0625 C 2.234375 -0.375 2.445312 -0.648438 2.71875 -0.890625 L 6.484375 -4.171875 C 6.753906 -4.398438 7.050781 -4.566406 7.375 -4.671875 C 7.707031 -4.773438 8.039062 -4.8125 8.375 -4.78125 C 8.71875 -4.757812 9.046875 -4.675781 9.359375 -4.53125 C 9.679688 -4.382812 9.960938 -4.175781 10.203125 -3.90625 Z M 10.53125 0.46875 C 10.65625 0.363281 10.722656 0.234375 10.734375 0.078125 C 10.742188 -0.078125 10.6875 -0.222656 10.5625 -0.359375 L 8.65625 -2.5625 C 8.539062 -2.6875 8.40625 -2.753906 8.25 -2.765625 C 8.09375 -2.785156 7.953125 -2.742188 7.828125 -2.640625 L 4.0625 0.640625 C 3.9375 0.753906 3.867188 0.890625 3.859375 1.046875 C 3.847656 1.210938 3.898438 1.359375 4.015625 1.484375 L 5.921875 3.6875 C 6.046875 3.820312 6.1875 3.894531 6.34375 3.90625 C 6.5 3.914062 6.640625 3.863281 6.765625 3.75 Z M 10.53125 0.46875 "/></g></g></g><g fill="#403029" fill-opacity="1"><g transform="translate(263.482146, 128.005611)"><g><path d="M 5.15625 7.59375 C 5.113281 7.664062 5.054688 7.695312 4.984375 7.6875 C 4.910156 7.6875 4.851562 7.65625 4.8125 7.59375 L 3.953125 6.234375 C 3.910156 6.160156 3.882812 6.066406 3.875 5.953125 C 3.875 5.847656 3.90625 5.765625 3.96875 5.703125 L 6.234375 2.203125 L 5.15625 0.484375 L 1.984375 2.5 C 1.898438 2.550781 1.8125 2.566406 1.71875 2.546875 C 1.632812 2.523438 1.570312 2.476562 1.53125 2.40625 L 0.765625 1.21875 C 0.710938 1.132812 0.695312 1.050781 0.71875 0.96875 C 0.738281 0.882812 0.789062 0.816406 0.875 0.765625 L 8.984375 -4.390625 C 9.066406 -4.441406 9.148438 -4.457031 9.234375 -4.4375 C 9.316406 -4.414062 9.382812 -4.363281 9.4375 -4.28125 L 12.25 0.140625 C 12.445312 0.453125 12.570312 0.773438 12.625 1.109375 C 12.675781 1.453125 12.660156 1.789062 12.578125 2.125 C 12.503906 2.457031 12.375 2.769531 12.1875 3.0625 C 12 3.351562 11.75 3.597656 11.4375 3.796875 L 10.703125 4.265625 C 10.441406 4.421875 10.171875 4.53125 9.890625 4.59375 C 9.609375 4.664062 9.328125 4.6875 9.046875 4.65625 C 8.773438 4.632812 8.503906 4.566406 8.234375 4.453125 C 7.972656 4.347656 7.734375 4.195312 7.515625 4 Z M 8.78125 2.34375 C 8.875 2.488281 9 2.578125 9.15625 2.609375 C 9.3125 2.640625 9.460938 2.613281 9.609375 2.53125 L 10.34375 2.0625 C 10.488281 1.96875 10.578125 1.84375 10.609375 1.6875 C 10.640625 1.53125 10.609375 1.378906 10.515625 1.234375 L 8.640625 -1.734375 L 6.90625 -0.625 Z M 8.78125 2.34375 "/></g></g></g><g fill="#403029" fill-opacity="1"><g transform="translate(95.516785, 236.516662)"><g><path d="M 9.625 -3.3125 C 9.75 -3.375 9.847656 -3.347656 9.921875 -3.234375 L 13.1875 2.921875 C 13.257812 3.046875 13.234375 3.140625 13.109375 3.203125 L 12.484375 3.546875 C 12.347656 3.609375 12.242188 3.578125 12.171875 3.453125 L 9.328125 -1.890625 L 6.3125 -0.28125 L 8.921875 4.625 C 8.953125 4.664062 8.953125 4.71875 8.921875 4.78125 C 8.898438 4.84375 8.875 4.878906 8.84375 4.890625 L 8.203125 5.234375 C 8.148438 5.265625 8.097656 5.269531 8.046875 5.25 C 7.992188 5.238281 7.953125 5.210938 7.921875 5.171875 L 5.3125 0.265625 L 1.453125 2.3125 C 1.335938 2.375 1.25 2.34375 1.1875 2.21875 L 0.859375 1.59375 C 0.785156 1.476562 0.804688 1.390625 0.921875 1.328125 Z M 9.625 -3.3125 "/></g></g></g><g fill="#403029" fill-opacity="1"><g transform="translate(103.203978, 250.102445)"><g><path d="M 2.5625 -0.21875 L 8.875 -4.921875 C 8.925781 -4.960938 8.976562 -4.972656 9.03125 -4.953125 C 9.09375 -4.941406 9.140625 -4.914062 9.171875 -4.875 L 9.609375 -4.296875 C 9.691406 -4.191406 9.675781 -4.097656 9.5625 -4.015625 L 3.25 0.6875 C 3.019531 0.863281 2.882812 1.09375 2.84375 1.375 C 2.800781 1.65625 2.867188 1.914062 3.046875 2.15625 L 5.046875 4.828125 C 5.210938 5.054688 5.4375 5.191406 5.71875 5.234375 C 6.007812 5.285156 6.269531 5.222656 6.5 5.046875 L 12.8125 0.34375 C 12.925781 0.257812 13.023438 0.273438 13.109375 0.390625 L 13.53125 0.953125 C 13.613281 1.078125 13.597656 1.179688 13.484375 1.265625 L 7.171875 5.96875 C 6.929688 6.15625 6.664062 6.28125 6.375 6.34375 C 6.09375 6.414062 5.816406 6.425781 5.546875 6.375 C 5.273438 6.332031 5.007812 6.238281 4.75 6.09375 C 4.5 5.945312 4.289062 5.753906 4.125 5.515625 L 2.125 2.84375 C 1.9375 2.601562 1.8125 2.34375 1.75 2.0625 C 1.695312 1.789062 1.679688 1.515625 1.703125 1.234375 C 1.734375 0.953125 1.820312 0.6875 1.96875 0.4375 C 2.125 0.1875 2.320312 -0.03125 2.5625 -0.21875 Z M 2.5625 -0.21875 "/></g></g></g><g fill="#403029" fill-opacity="1"><g transform="translate(112.848724, 262.376241)"><g><path d="M 8.609375 -5.9375 L 9.109375 -5.421875 C 9.210938 -5.316406 9.21875 -5.210938 9.125 -5.109375 L 2.859375 1.234375 L 7.03125 5.328125 C 7.070312 5.378906 7.09375 5.429688 7.09375 5.484375 C 7.09375 5.546875 7.070312 5.597656 7.03125 5.640625 L 6.53125 6.15625 C 6.4375 6.25 6.335938 6.242188 6.234375 6.140625 L 1.40625 1.375 C 1.375 1.351562 1.351562 1.304688 1.34375 1.234375 C 1.34375 1.171875 1.359375 1.125 1.390625 1.09375 L 8.3125 -5.921875 C 8.363281 -5.972656 8.414062 -5.992188 8.46875 -5.984375 C 8.53125 -5.972656 8.578125 -5.957031 8.609375 -5.9375 Z M 8.609375 -5.9375 "/></g></g></g><g fill="#403029" fill-opacity="1"><g transform="translate(124.231232, 273.058258)"><g><path d="M 7.625 -7.15625 L 8.203125 -6.734375 C 8.328125 -6.648438 8.347656 -6.550781 8.265625 -6.4375 L 3.03125 0.78125 L 7.75 4.21875 C 7.800781 4.25 7.832031 4.296875 7.84375 4.359375 C 7.851562 4.421875 7.84375 4.472656 7.8125 4.515625 L 7.390625 5.09375 C 7.304688 5.207031 7.203125 5.222656 7.078125 5.140625 L 1.59375 1.15625 C 1.5625 1.132812 1.535156 1.09375 1.515625 1.03125 C 1.503906 0.96875 1.515625 0.910156 1.546875 0.859375 L 7.328125 -7.109375 C 7.367188 -7.160156 7.421875 -7.1875 7.484375 -7.1875 C 7.546875 -7.1875 7.59375 -7.175781 7.625 -7.15625 Z M 7.625 -7.15625 "/></g></g></g><g fill="#403029" fill-opacity="1"><g transform="translate(137.091732, 281.907993)"><g/></g></g><g fill="#403029" fill-opacity="1"><g transform="translate(151.123528, 288.7093)"><g><path d="M 1.984375 -1.640625 L 2.203125 -2.28125 C 2.210938 -2.332031 2.25 -2.367188 2.3125 -2.390625 C 2.375 -2.421875 2.429688 -2.429688 2.484375 -2.421875 L 3.15625 -2.1875 C 3.207031 -2.164062 3.242188 -2.128906 3.265625 -2.078125 C 3.296875 -2.023438 3.304688 -1.972656 3.296875 -1.921875 L 3.078125 -1.28125 C 2.984375 -1 3 -0.726562 3.125 -0.46875 C 3.25 -0.207031 3.445312 -0.03125 3.71875 0.0625 L 6.890625 1.125 C 7.148438 1.21875 7.410156 1.195312 7.671875 1.0625 C 7.941406 0.9375 8.125 0.734375 8.21875 0.453125 L 8.640625 -0.796875 C 8.734375 -1.078125 8.710938 -1.34375 8.578125 -1.59375 C 8.441406 -1.851562 8.242188 -2.03125 7.984375 -2.125 L 4.8125 -3.1875 C 4.53125 -3.289062 4.28125 -3.4375 4.0625 -3.625 C 3.851562 -3.820312 3.6875 -4.046875 3.5625 -4.296875 C 3.4375 -4.546875 3.359375 -4.8125 3.328125 -5.09375 C 3.304688 -5.382812 3.34375 -5.671875 3.4375 -5.953125 L 3.859375 -7.21875 C 3.960938 -7.5 4.109375 -7.75 4.296875 -7.96875 C 4.492188 -8.1875 4.71875 -8.359375 4.96875 -8.484375 C 5.226562 -8.609375 5.5 -8.679688 5.78125 -8.703125 C 6.070312 -8.722656 6.359375 -8.679688 6.640625 -8.578125 L 9.8125 -7.515625 C 10.082031 -7.421875 10.328125 -7.28125 10.546875 -7.09375 C 10.765625 -6.90625 10.9375 -6.679688 11.0625 -6.421875 C 11.195312 -6.171875 11.273438 -5.898438 11.296875 -5.609375 C 11.316406 -5.316406 11.273438 -5.03125 11.171875 -4.75 L 10.953125 -4.09375 C 10.910156 -3.96875 10.820312 -3.929688 10.6875 -3.984375 L 10.015625 -4.203125 C 9.878906 -4.253906 9.832031 -4.34375 9.875 -4.46875 L 10.09375 -5.125 C 10.1875 -5.394531 10.164062 -5.65625 10.03125 -5.90625 C 9.90625 -6.164062 9.710938 -6.34375 9.453125 -6.4375 L 6.28125 -7.5 C 6.007812 -7.59375 5.742188 -7.578125 5.484375 -7.453125 C 5.222656 -7.328125 5.046875 -7.128906 4.953125 -6.859375 L 4.53125 -5.59375 C 4.4375 -5.320312 4.453125 -5.054688 4.578125 -4.796875 C 4.710938 -4.535156 4.914062 -4.359375 5.1875 -4.265625 L 8.359375 -3.203125 C 8.628906 -3.109375 8.875 -2.960938 9.09375 -2.765625 C 9.3125 -2.578125 9.484375 -2.351562 9.609375 -2.09375 C 9.742188 -1.84375 9.816406 -1.570312 9.828125 -1.28125 C 9.847656 -1 9.8125 -0.710938 9.71875 -0.421875 L 9.296875 0.828125 C 9.191406 1.117188 9.046875 1.375 8.859375 1.59375 C 8.671875 1.8125 8.445312 1.976562 8.1875 2.09375 C 7.9375 2.207031 7.664062 2.273438 7.375 2.296875 C 7.082031 2.328125 6.800781 2.296875 6.53125 2.203125 L 3.359375 1.140625 C 3.078125 1.035156 2.828125 0.882812 2.609375 0.6875 C 2.398438 0.5 2.226562 0.28125 2.09375 0.03125 C 1.96875 -0.207031 1.890625 -0.472656 1.859375 -0.765625 C 1.835938 -1.054688 1.878906 -1.347656 1.984375 -1.640625 Z M 1.984375 -1.640625 "/></g></g></g><g fill="#403029" fill-opacity="1"><g transform="translate(166.033956, 293.329493)"><g><path d="M 4.609375 0.609375 L 6.15625 -8.171875 L 3.140625 -8.703125 C 3.003906 -8.734375 2.953125 -8.820312 2.984375 -8.96875 L 3.109375 -9.671875 C 3.128906 -9.804688 3.207031 -9.859375 3.34375 -9.828125 L 10.5 -8.578125 C 10.644531 -8.546875 10.707031 -8.460938 10.6875 -8.328125 L 10.5625 -7.625 C 10.53125 -7.476562 10.441406 -7.421875 10.296875 -7.453125 L 7.28125 -7.984375 L 5.734375 0.796875 C 5.722656 0.847656 5.691406 0.890625 5.640625 0.921875 C 5.597656 0.960938 5.550781 0.976562 5.5 0.96875 L 4.78125 0.84375 C 4.644531 0.820312 4.585938 0.742188 4.609375 0.609375 Z M 4.609375 0.609375 "/></g></g></g><g fill="#403029" fill-opacity="1"><g transform="translate(181.469986, 295.652467)"><g><path d="M 6.84375 -10.109375 C 6.90625 -10.109375 6.960938 -10.085938 7.015625 -10.046875 C 7.078125 -10.015625 7.117188 -9.972656 7.140625 -9.921875 L 9.09375 -4.65625 C 9.113281 -4.613281 9.128906 -4.546875 9.140625 -4.453125 C 9.160156 -4.367188 9.171875 -4.296875 9.171875 -4.234375 L 9.0625 0.015625 C 9.0625 0.148438 8.988281 0.210938 8.84375 0.203125 L 8.140625 0.1875 C 8.003906 0.1875 7.9375 0.117188 7.9375 -0.015625 L 8 -2.796875 L 2.5625 -2.921875 L 2.5 -0.140625 C 2.5 -0.00390625 2.429688 0.0546875 2.296875 0.046875 L 1.578125 0.03125 C 1.429688 0.03125 1.359375 -0.0351562 1.359375 -0.171875 L 1.46875 -4.421875 C 1.46875 -4.484375 1.472656 -4.554688 1.484375 -4.640625 C 1.503906 -4.722656 1.523438 -4.785156 1.546875 -4.828125 L 3.75 -10 C 3.769531 -10.050781 3.8125 -10.09375 3.875 -10.125 C 3.9375 -10.15625 3.988281 -10.171875 4.03125 -10.171875 Z M 8.03125 -3.90625 L 8.046875 -4.265625 L 6.28125 -8.984375 L 4.59375 -9.015625 L 2.609375 -4.390625 L 2.59375 -4.03125 Z M 8.03125 -3.90625 "/></g></g></g><g fill="#403029" fill-opacity="1"><g transform="translate(197.079793, 295.625266)"><g><path d="M 8.0625 -8.484375 C 8.070312 -8.347656 8.003906 -8.269531 7.859375 -8.25 L 7.15625 -8.15625 C 7.019531 -8.144531 6.945312 -8.207031 6.9375 -8.34375 L 6.84375 -9.046875 C 6.789062 -9.335938 6.648438 -9.566406 6.421875 -9.734375 C 6.203125 -9.898438 5.953125 -9.960938 5.671875 -9.921875 L 2.359375 -9.5 C 2.066406 -9.457031 1.832031 -9.320312 1.65625 -9.09375 C 1.488281 -8.875 1.421875 -8.617188 1.453125 -8.328125 L 2.203125 -2.484375 C 2.242188 -2.191406 2.375 -1.957031 2.59375 -1.78125 C 2.820312 -1.601562 3.082031 -1.535156 3.375 -1.578125 L 6.6875 -2 C 6.96875 -2.039062 7.195312 -2.171875 7.375 -2.390625 C 7.550781 -2.609375 7.625 -2.863281 7.59375 -3.15625 L 7.515625 -3.859375 C 7.503906 -3.910156 7.515625 -3.957031 7.546875 -4 C 7.578125 -4.050781 7.625 -4.078125 7.6875 -4.078125 L 8.390625 -4.171875 C 8.453125 -4.179688 8.503906 -4.164062 8.546875 -4.125 C 8.597656 -4.09375 8.628906 -4.050781 8.640625 -4 L 8.71875 -3.296875 C 8.757812 -2.992188 8.734375 -2.707031 8.640625 -2.4375 C 8.554688 -2.164062 8.429688 -1.921875 8.265625 -1.703125 C 8.097656 -1.484375 7.890625 -1.300781 7.640625 -1.15625 C 7.390625 -1.007812 7.117188 -0.914062 6.828125 -0.875 L 3.515625 -0.453125 C 3.210938 -0.410156 2.925781 -0.429688 2.65625 -0.515625 C 2.382812 -0.597656 2.132812 -0.722656 1.90625 -0.890625 C 1.6875 -1.054688 1.503906 -1.265625 1.359375 -1.515625 C 1.210938 -1.765625 1.117188 -2.039062 1.078125 -2.34375 L 0.328125 -8.1875 C 0.285156 -8.488281 0.304688 -8.773438 0.390625 -9.046875 C 0.472656 -9.328125 0.597656 -9.578125 0.765625 -9.796875 C 0.941406 -10.023438 1.148438 -10.210938 1.390625 -10.359375 C 1.628906 -10.503906 1.898438 -10.597656 2.203125 -10.640625 L 5.515625 -11.0625 C 5.804688 -11.101562 6.09375 -11.082031 6.375 -11 C 6.65625 -10.914062 6.90625 -10.789062 7.125 -10.625 C 7.34375 -10.457031 7.523438 -10.25 7.671875 -10 C 7.828125 -9.757812 7.925781 -9.488281 7.96875 -9.1875 Z M 8.0625 -8.484375 "/></g></g></g><g fill="#403029" fill-opacity="1"><g transform="translate(212.507649, 293.248531)"><g><path d="M 7.3125 -2.28125 L 3.71875 -5.8125 L 1.25 -5.109375 L 2.4375 -0.90625 C 2.476562 -0.78125 2.425781 -0.695312 2.28125 -0.65625 L 1.59375 -0.453125 C 1.550781 -0.441406 1.5 -0.453125 1.4375 -0.484375 C 1.382812 -0.515625 1.347656 -0.550781 1.328125 -0.59375 L -1.375 -10.078125 C -1.394531 -10.140625 -1.382812 -10.191406 -1.34375 -10.234375 C -1.3125 -10.285156 -1.273438 -10.316406 -1.234375 -10.328125 L -0.546875 -10.53125 C -0.398438 -10.570312 -0.304688 -10.523438 -0.265625 -10.390625 L 0.9375 -6.203125 L 3.40625 -6.90625 L 4.578125 -11.8125 C 4.585938 -11.851562 4.617188 -11.898438 4.671875 -11.953125 C 4.722656 -12.015625 4.773438 -12.050781 4.828125 -12.0625 L 5.671875 -12.3125 C 5.734375 -12.320312 5.78125 -12.3125 5.8125 -12.28125 C 5.84375 -12.257812 5.847656 -12.222656 5.828125 -12.171875 L 4.515625 -6.640625 L 8.5625 -2.640625 C 8.664062 -2.546875 8.644531 -2.476562 8.5 -2.4375 L 7.65625 -2.1875 C 7.519531 -2.15625 7.40625 -2.1875 7.3125 -2.28125 Z M 7.3125 -2.28125 "/></g></g></g><g fill="#403029" fill-opacity="1"><g transform="translate(227.401302, 288.575922)"><g/></g></g><g fill="#403029" fill-opacity="1"><g transform="translate(241.409581, 281.723373)"><g><path d="M 1.03125 -0.921875 L -4.375 -9.15625 C -4.40625 -9.207031 -4.414062 -9.257812 -4.40625 -9.3125 C -4.394531 -9.375 -4.367188 -9.414062 -4.328125 -9.4375 L 0.125 -12.359375 C 0.363281 -12.515625 0.625 -12.617188 0.90625 -12.671875 C 1.195312 -12.722656 1.476562 -12.722656 1.75 -12.671875 C 2.03125 -12.617188 2.289062 -12.507812 2.53125 -12.34375 C 2.78125 -12.1875 2.988281 -11.984375 3.15625 -11.734375 L 6.390625 -6.8125 C 6.554688 -6.5625 6.664062 -6.289062 6.71875 -6 C 6.769531 -5.707031 6.765625 -5.421875 6.703125 -5.140625 C 6.640625 -4.867188 6.523438 -4.613281 6.359375 -4.375 C 6.203125 -4.132812 6.003906 -3.9375 5.765625 -3.78125 L 1.3125 -0.859375 C 1.269531 -0.835938 1.21875 -0.832031 1.15625 -0.84375 C 1.101562 -0.851562 1.0625 -0.878906 1.03125 -0.921875 Z M 1.46875 -2.328125 L 5.140625 -4.734375 C 5.367188 -4.890625 5.515625 -5.109375 5.578125 -5.390625 C 5.648438 -5.679688 5.601562 -5.945312 5.4375 -6.1875 L 2.203125 -11.109375 C 2.046875 -11.359375 1.820312 -11.507812 1.53125 -11.5625 C 1.238281 -11.613281 0.976562 -11.5625 0.75 -11.40625 L -2.921875 -9 Z M 1.46875 -2.328125 "/></g></g></g><g fill="#403029" fill-opacity="1"><g transform="translate(254.238149, 272.830405)"><g><path d="M 1.0625 -1.234375 L -5.515625 -8.5625 C -5.609375 -8.664062 -5.609375 -8.765625 -5.515625 -8.859375 L -0.328125 -13.515625 C -0.222656 -13.609375 -0.125 -13.601562 -0.03125 -13.5 L 0.4375 -12.96875 C 0.539062 -12.851562 0.539062 -12.75 0.4375 -12.65625 L -4.078125 -8.59375 L -1.796875 -6.046875 L 2.125 -9.578125 C 2.15625 -9.597656 2.203125 -9.609375 2.265625 -9.609375 C 2.335938 -9.609375 2.390625 -9.59375 2.421875 -9.5625 L 2.890625 -9.03125 C 2.929688 -8.976562 2.945312 -8.921875 2.9375 -8.859375 C 2.9375 -8.796875 2.921875 -8.753906 2.890625 -8.734375 L -1.03125 -5.203125 L 1.25 -2.65625 L 5.765625 -6.71875 C 5.804688 -6.757812 5.859375 -6.773438 5.921875 -6.765625 C 5.984375 -6.765625 6.035156 -6.742188 6.078125 -6.703125 L 6.546875 -6.171875 C 6.640625 -6.066406 6.632812 -5.96875 6.53125 -5.875 L 1.34375 -1.21875 C 1.25 -1.125 1.15625 -1.128906 1.0625 -1.234375 Z M 1.0625 -1.234375 "/></g></g></g><g fill="#403029" fill-opacity="1"><g transform="translate(265.572373, 262.120011)"><g><path d="M 2.09375 -2.859375 L -3.25 -4.546875 C -3.300781 -4.566406 -3.363281 -4.59375 -3.4375 -4.625 C -3.519531 -4.65625 -3.582031 -4.691406 -3.625 -4.734375 L -6.921875 -7.4375 C -6.960938 -7.476562 -6.984375 -7.523438 -6.984375 -7.578125 C -6.984375 -7.640625 -6.96875 -7.691406 -6.9375 -7.734375 L -6.484375 -8.296875 C -6.390625 -8.398438 -6.289062 -8.410156 -6.1875 -8.328125 L -3.046875 -5.75 C -3.003906 -5.71875 -2.945312 -5.679688 -2.875 -5.640625 C -2.8125 -5.597656 -2.75 -5.566406 -2.6875 -5.546875 L 1.90625 -4.09375 L 2.96875 -5.40625 L 0.65625 -9.640625 C 0.632812 -9.679688 0.59375 -9.734375 0.53125 -9.796875 C 0.476562 -9.859375 0.429688 -9.90625 0.390625 -9.9375 L -2.75 -12.515625 C -2.851562 -12.597656 -2.859375 -12.695312 -2.765625 -12.8125 L -2.3125 -13.359375 C -2.21875 -13.472656 -2.117188 -13.488281 -2.015625 -13.40625 L 1.28125 -10.703125 C 1.320312 -10.660156 1.367188 -10.609375 1.421875 -10.546875 C 1.472656 -10.492188 1.515625 -10.4375 1.546875 -10.375 L 4.25 -5.46875 C 4.269531 -5.425781 4.273438 -5.363281 4.265625 -5.28125 C 4.253906 -5.207031 4.234375 -5.148438 4.203125 -5.109375 L 2.421875 -2.953125 C 2.390625 -2.910156 2.335938 -2.878906 2.265625 -2.859375 C 2.203125 -2.835938 2.144531 -2.835938 2.09375 -2.859375 Z M 2.09375 -2.859375 "/></g></g></g><g fill="#403029" fill-opacity="1"><g transform="translate(275.166971, 249.826912)"><g><path d="M 0.65625 -1.5 L -7.8125 -6.53125 C -7.9375 -6.601562 -7.96875 -6.695312 -7.90625 -6.8125 L -4.34375 -12.796875 C -4.257812 -12.921875 -4.15625 -12.945312 -4.03125 -12.875 L -3.421875 -12.515625 C -3.296875 -12.441406 -3.273438 -12.34375 -3.359375 -12.21875 L -6.453125 -7.015625 L -3.515625 -5.265625 L -0.828125 -9.78125 C -0.804688 -9.820312 -0.757812 -9.847656 -0.6875 -9.859375 C -0.625 -9.867188 -0.570312 -9.863281 -0.53125 -9.84375 L 0.078125 -9.46875 C 0.128906 -9.4375 0.160156 -9.390625 0.171875 -9.328125 C 0.179688 -9.273438 0.175781 -9.226562 0.15625 -9.1875 L -2.53125 -4.671875 L 0.40625 -2.921875 L 3.5 -8.125 C 3.53125 -8.175781 3.578125 -8.207031 3.640625 -8.21875 C 3.710938 -8.238281 3.769531 -8.234375 3.8125 -8.203125 L 4.4375 -7.84375 C 4.550781 -7.769531 4.566406 -7.671875 4.484375 -7.546875 L 0.921875 -1.5625 C 0.859375 -1.445312 0.769531 -1.425781 0.65625 -1.5 Z M 0.65625 -1.5 "/></g></g></g><g fill="#403029" fill-opacity="1"><g transform="translate(282.806603, 236.233012)"><g><path d="M -8.78125 -5.6875 L -8.5 -6.34375 C -8.445312 -6.476562 -8.359375 -6.519531 -8.234375 -6.46875 L 0.03125 -3.109375 L 2.234375 -8.53125 C 2.253906 -8.582031 2.296875 -8.617188 2.359375 -8.640625 C 2.421875 -8.671875 2.472656 -8.675781 2.515625 -8.65625 L 3.1875 -8.390625 C 3.3125 -8.335938 3.347656 -8.242188 3.296875 -8.109375 L 0.734375 -1.828125 C 0.722656 -1.785156 0.691406 -1.75 0.640625 -1.71875 C 0.585938 -1.695312 0.535156 -1.695312 0.484375 -1.71875 L -8.65625 -5.421875 C -8.707031 -5.453125 -8.742188 -5.492188 -8.765625 -5.546875 C -8.785156 -5.597656 -8.789062 -5.644531 -8.78125 -5.6875 Z M -8.78125 -5.6875 "/></g></g></g><g fill="#403029" fill-opacity="1"><g transform="translate(288.316811, 221.628042)"><g><path d="M 0.828125 -3.453125 C 0.753906 -3.160156 0.628906 -2.898438 0.453125 -2.671875 C 0.285156 -2.441406 0.0859375 -2.253906 -0.140625 -2.109375 C -0.367188 -1.960938 -0.628906 -1.863281 -0.921875 -1.8125 C -1.222656 -1.769531 -1.519531 -1.785156 -1.8125 -1.859375 L -7.546875 -3.21875 C -7.835938 -3.289062 -8.097656 -3.410156 -8.328125 -3.578125 C -8.554688 -3.753906 -8.742188 -3.960938 -8.890625 -4.203125 C -9.046875 -4.441406 -9.144531 -4.703125 -9.1875 -4.984375 C -9.238281 -5.265625 -9.226562 -5.550781 -9.15625 -5.84375 L -8.375 -9.09375 C -8.3125 -9.375 -8.191406 -9.628906 -8.015625 -9.859375 C -7.847656 -10.097656 -7.644531 -10.289062 -7.40625 -10.4375 C -7.164062 -10.59375 -6.898438 -10.691406 -6.609375 -10.734375 C -6.328125 -10.785156 -6.039062 -10.773438 -5.75 -10.703125 L -0.015625 -9.34375 C 0.273438 -9.269531 0.539062 -9.144531 0.78125 -8.96875 C 1.019531 -8.800781 1.207031 -8.59375 1.34375 -8.34375 C 1.488281 -8.101562 1.582031 -7.835938 1.625 -7.546875 C 1.675781 -7.265625 1.671875 -6.984375 1.609375 -6.703125 Z M -8.046875 -5.578125 C -8.117188 -5.296875 -8.078125 -5.03125 -7.921875 -4.78125 C -7.773438 -4.539062 -7.5625 -4.382812 -7.28125 -4.3125 L -1.546875 -2.953125 C -1.265625 -2.878906 -1 -2.914062 -0.75 -3.0625 C -0.507812 -3.21875 -0.351562 -3.4375 -0.28125 -3.71875 L 0.5 -6.96875 C 0.5625 -7.238281 0.515625 -7.5 0.359375 -7.75 C 0.210938 -8 0 -8.160156 -0.28125 -8.234375 L -6.015625 -9.59375 C -6.296875 -9.664062 -6.554688 -9.625 -6.796875 -9.46875 C -7.046875 -9.3125 -7.203125 -9.097656 -7.265625 -8.828125 Z M -8.046875 -5.578125 "/></g></g></g><g fill="#403029" fill-opacity="1"><g transform="translate(291.565679, 206.360045)"><g><path d="M -0.09375 -1.375 L -9.921875 -2.203125 C -9.984375 -2.203125 -10.03125 -2.226562 -10.0625 -2.28125 C -10.09375 -2.332031 -10.109375 -2.382812 -10.109375 -2.4375 L -9.65625 -7.71875 C -9.632812 -8.007812 -9.554688 -8.28125 -9.421875 -8.53125 C -9.285156 -8.789062 -9.109375 -9.015625 -8.890625 -9.203125 C -8.671875 -9.390625 -8.421875 -9.53125 -8.140625 -9.625 C -7.867188 -9.71875 -7.582031 -9.75 -7.28125 -9.71875 L -5.953125 -9.609375 C -5.660156 -9.585938 -5.382812 -9.503906 -5.125 -9.359375 C -4.875 -9.222656 -4.660156 -9.046875 -4.484375 -8.828125 C -4.304688 -8.609375 -4.171875 -8.359375 -4.078125 -8.078125 C -3.984375 -7.804688 -3.945312 -7.523438 -3.96875 -7.234375 L -4.34375 -2.859375 L 0 -2.5 C 0.132812 -2.488281 0.195312 -2.414062 0.1875 -2.28125 L 0.125 -1.578125 C 0.125 -1.523438 0.0976562 -1.476562 0.046875 -1.4375 C 0.00390625 -1.394531 -0.0390625 -1.375 -0.09375 -1.375 Z M -5.484375 -2.953125 L -5.109375 -7.328125 C -5.085938 -7.609375 -5.171875 -7.863281 -5.359375 -8.09375 C -5.546875 -8.320312 -5.78125 -8.445312 -6.0625 -8.46875 L -7.390625 -8.578125 C -7.679688 -8.597656 -7.9375 -8.515625 -8.15625 -8.328125 C -8.375 -8.140625 -8.492188 -7.90625 -8.515625 -7.625 L -8.890625 -3.25 Z M -5.484375 -2.953125 "/></g></g></g><g fill="#403029" fill-opacity="1"><g transform="translate(292.474481, 190.774557)"><g><path d="M -0.3125 -1.59375 L -10.15625 -0.9375 C -10.289062 -0.925781 -10.363281 -0.988281 -10.375 -1.125 L -10.84375 -8.078125 C -10.851562 -8.222656 -10.789062 -8.300781 -10.65625 -8.3125 L -9.9375 -8.359375 C -9.789062 -8.367188 -9.710938 -8.300781 -9.703125 -8.15625 L -9.296875 -2.109375 L -5.875 -2.328125 L -6.21875 -7.578125 C -6.226562 -7.617188 -6.207031 -7.664062 -6.15625 -7.71875 C -6.113281 -7.769531 -6.070312 -7.796875 -6.03125 -7.796875 L -5.3125 -7.84375 C -5.25 -7.851562 -5.195312 -7.832031 -5.15625 -7.78125 C -5.113281 -7.738281 -5.085938 -7.695312 -5.078125 -7.65625 L -4.734375 -2.40625 L -1.328125 -2.640625 L -1.734375 -8.6875 C -1.734375 -8.75 -1.710938 -8.800781 -1.671875 -8.84375 C -1.628906 -8.894531 -1.582031 -8.921875 -1.53125 -8.921875 L -0.8125 -8.96875 C -0.675781 -8.976562 -0.601562 -8.910156 -0.59375 -8.765625 L -0.125 -1.8125 C -0.113281 -1.675781 -0.175781 -1.601562 -0.3125 -1.59375 Z M -0.3125 -1.59375 "/></g></g></g><g fill="#403029" fill-opacity="1"><g transform="translate(291.038923, 175.249378)"><g><path d="M -1.84375 -7.421875 L -5.6875 -4.578125 L -5 -1.453125 L -0.75 -2.390625 C -0.613281 -2.421875 -0.53125 -2.375 -0.5 -2.25 L -0.34375 -1.5625 C -0.3125 -1.414062 -0.363281 -1.328125 -0.5 -1.296875 L -10.125 0.84375 C -10.25 0.863281 -10.328125 0.800781 -10.359375 0.65625 L -11.515625 -4.515625 C -11.578125 -4.796875 -11.582031 -5.078125 -11.53125 -5.359375 C -11.476562 -5.640625 -11.375 -5.898438 -11.21875 -6.140625 C -11.070312 -6.390625 -10.878906 -6.597656 -10.640625 -6.765625 C -10.410156 -6.929688 -10.148438 -7.046875 -9.859375 -7.109375 L -8.5625 -7.390625 C -8.082031 -7.503906 -7.625 -7.457031 -7.1875 -7.25 C -6.75 -7.050781 -6.410156 -6.734375 -6.171875 -6.296875 L -5.90625 -5.828125 L -2.109375 -8.625 C -2.078125 -8.664062 -2.035156 -8.679688 -1.984375 -8.671875 C -1.941406 -8.660156 -1.914062 -8.625 -1.90625 -8.5625 L -1.71875 -7.765625 C -1.707031 -7.703125 -1.710938 -7.632812 -1.734375 -7.5625 C -1.765625 -7.488281 -1.800781 -7.441406 -1.84375 -7.421875 Z M -6.109375 -1.203125 L -7.0625 -5.5 C -7.113281 -5.769531 -7.257812 -5.984375 -7.5 -6.140625 C -7.75 -6.296875 -8.019531 -6.34375 -8.3125 -6.28125 L -9.609375 -6 C -9.890625 -5.9375 -10.101562 -5.78125 -10.25 -5.53125 C -10.40625 -5.28125 -10.457031 -5.019531 -10.40625 -4.75 L -9.453125 -0.453125 Z M -6.109375 -1.203125 "/></g></g></g><g clip-path="url(#802bc8d26e)"><path fill="#403029" d="M 152.945312 189.914062 L 170.617188 207.585938 L 168.785156 209.417969 L 149.292969 189.914062 L 168.792969 170.410156 L 170.625 172.242188 Z M 194.394531 155.777344 L 196.832031 156.390625 L 182.199219 224.039062 L 179.765625 223.425781 Z M 207.800781 170.410156 L 227.304688 189.914062 L 207.800781 209.417969 L 205.96875 207.585938 L 223.640625 189.914062 L 205.96875 172.242188 Z M 207.800781 170.410156 " fill-opacity="1" fill-rule="nonzero"/></g></svg>